<mxfile host="app.diagrams.net" modified="2022-06-24T04:10:52.922Z" agent="5.0 (X11)" etag="XZShg3RmbzdEqZ-THUY8" version="20.0.3" type="github">
  <diagram id="R2lEEEUBdFMjLlhIrx00" name="Page-1">
    <mxGraphModel dx="841" dy="448" grid="1" gridSize="10" guides="0" tooltips="1" connect="1" arrows="1" fold="1" page="1" pageScale="1" pageWidth="1169" pageHeight="827" background="#ffffff" math="0" shadow="0" extFonts="Permanent Marker^https://fonts.googleapis.com/css?family=Permanent+Marker">
      <root>
        <object label="" R2lEEEUBdFMjLlhIrx00="" id="0">
          <mxCell />
        </object>
        <mxCell id="1" parent="0" />
        <mxCell id="9uWtrGqiBt9vVxMqKEjF-1" value="&lt;b&gt;&lt;font style=&quot;font-size: 14px;&quot;&gt;Pelanggan&lt;/font&gt;&lt;/b&gt;" style="whiteSpace=wrap;html=1;align=center;" vertex="1" parent="1">
          <mxGeometry x="240" y="421" width="100" height="40" as="geometry" />
        </mxCell>
        <mxCell id="9uWtrGqiBt9vVxMqKEjF-3" value="kd_pelanggan" style="ellipse;whiteSpace=wrap;html=1;align=center;fontSize=14;" vertex="1" parent="1">
          <mxGeometry x="130" y="351" width="100" height="40" as="geometry" />
        </mxCell>
        <mxCell id="9uWtrGqiBt9vVxMqKEjF-4" value="nama" style="ellipse;whiteSpace=wrap;html=1;align=center;fontSize=14;" vertex="1" parent="1">
          <mxGeometry x="239" y="350" width="100" height="40" as="geometry" />
        </mxCell>
        <mxCell id="9uWtrGqiBt9vVxMqKEjF-5" value="no_hp" style="ellipse;whiteSpace=wrap;html=1;align=center;fontSize=14;" vertex="1" parent="1">
          <mxGeometry x="350" y="351" width="100" height="40" as="geometry" />
        </mxCell>
        <mxCell id="9uWtrGqiBt9vVxMqKEjF-6" value="" style="endArrow=none;html=1;rounded=0;fontSize=14;exitX=0.5;exitY=0;exitDx=0;exitDy=0;entryX=0.5;entryY=1;entryDx=0;entryDy=0;" edge="1" parent="1" source="9uWtrGqiBt9vVxMqKEjF-1" target="9uWtrGqiBt9vVxMqKEjF-3">
          <mxGeometry width="50" height="50" relative="1" as="geometry">
            <mxPoint x="640" y="371" as="sourcePoint" />
            <mxPoint x="690" y="321" as="targetPoint" />
          </mxGeometry>
        </mxCell>
        <mxCell id="9uWtrGqiBt9vVxMqKEjF-9" value="" style="endArrow=none;html=1;rounded=0;fontSize=14;" edge="1" parent="1">
          <mxGeometry width="50" height="50" relative="1" as="geometry">
            <mxPoint x="290" y="421" as="sourcePoint" />
            <mxPoint x="290" y="391" as="targetPoint" />
          </mxGeometry>
        </mxCell>
        <mxCell id="9uWtrGqiBt9vVxMqKEjF-10" value="" style="endArrow=none;html=1;rounded=0;fontSize=14;entryX=0.5;entryY=1;entryDx=0;entryDy=0;" edge="1" parent="1" target="9uWtrGqiBt9vVxMqKEjF-5">
          <mxGeometry width="50" height="50" relative="1" as="geometry">
            <mxPoint x="290" y="421" as="sourcePoint" />
            <mxPoint x="300" y="401" as="targetPoint" />
          </mxGeometry>
        </mxCell>
        <mxCell id="9uWtrGqiBt9vVxMqKEjF-11" value="&lt;b&gt;&lt;font style=&quot;font-size: 14px;&quot;&gt;Menu&lt;/font&gt;&lt;/b&gt;" style="whiteSpace=wrap;html=1;align=center;" vertex="1" parent="1">
          <mxGeometry x="570" y="600" width="100" height="40" as="geometry" />
        </mxCell>
        <mxCell id="9uWtrGqiBt9vVxMqKEjF-12" value="kd_menu" style="ellipse;whiteSpace=wrap;html=1;align=center;fontSize=14;" vertex="1" parent="1">
          <mxGeometry x="390" y="670" width="100" height="40" as="geometry" />
        </mxCell>
        <mxCell id="9uWtrGqiBt9vVxMqKEjF-13" value="nama_menu" style="ellipse;whiteSpace=wrap;html=1;align=center;fontSize=14;" vertex="1" parent="1">
          <mxGeometry x="500" y="669" width="100" height="40" as="geometry" />
        </mxCell>
        <mxCell id="9uWtrGqiBt9vVxMqKEjF-14" value="harga_menu" style="ellipse;whiteSpace=wrap;html=1;align=center;fontSize=14;" vertex="1" parent="1">
          <mxGeometry x="610" y="670" width="100" height="40" as="geometry" />
        </mxCell>
        <mxCell id="9uWtrGqiBt9vVxMqKEjF-15" value="" style="endArrow=none;html=1;rounded=0;fontSize=14;entryX=0.444;entryY=-0.004;entryDx=0;entryDy=0;entryPerimeter=0;" edge="1" parent="1" target="9uWtrGqiBt9vVxMqKEjF-12">
          <mxGeometry width="50" height="50" relative="1" as="geometry">
            <mxPoint x="620" y="639" as="sourcePoint" />
            <mxPoint x="1020" y="500" as="targetPoint" />
          </mxGeometry>
        </mxCell>
        <mxCell id="9uWtrGqiBt9vVxMqKEjF-16" value="" style="endArrow=none;html=1;rounded=0;fontSize=14;exitX=0.5;exitY=0;exitDx=0;exitDy=0;" edge="1" parent="1" source="9uWtrGqiBt9vVxMqKEjF-13">
          <mxGeometry width="50" height="50" relative="1" as="geometry">
            <mxPoint x="620" y="669" as="sourcePoint" />
            <mxPoint x="620" y="639" as="targetPoint" />
          </mxGeometry>
        </mxCell>
        <mxCell id="9uWtrGqiBt9vVxMqKEjF-17" value="" style="endArrow=none;html=1;rounded=0;fontSize=14;entryX=0.5;entryY=0;entryDx=0;entryDy=0;" edge="1" parent="1" target="9uWtrGqiBt9vVxMqKEjF-14">
          <mxGeometry width="50" height="50" relative="1" as="geometry">
            <mxPoint x="620" y="639" as="sourcePoint" />
            <mxPoint x="630" y="580" as="targetPoint" />
          </mxGeometry>
        </mxCell>
        <mxCell id="9uWtrGqiBt9vVxMqKEjF-18" value="qty_menu" style="ellipse;whiteSpace=wrap;html=1;align=center;fontSize=14;" vertex="1" parent="1">
          <mxGeometry x="720" y="669" width="100" height="40" as="geometry" />
        </mxCell>
        <mxCell id="9uWtrGqiBt9vVxMqKEjF-19" value="" style="endArrow=none;html=1;rounded=0;fontSize=14;entryX=0.5;entryY=0;entryDx=0;entryDy=0;exitX=0.5;exitY=1;exitDx=0;exitDy=0;" edge="1" parent="1" source="9uWtrGqiBt9vVxMqKEjF-11" target="9uWtrGqiBt9vVxMqKEjF-18">
          <mxGeometry width="50" height="50" relative="1" as="geometry">
            <mxPoint x="630" y="649" as="sourcePoint" />
            <mxPoint x="670" y="680" as="targetPoint" />
          </mxGeometry>
        </mxCell>
        <mxCell id="9uWtrGqiBt9vVxMqKEjF-20" value="&lt;b&gt;Transaksi&lt;/b&gt;" style="shape=associativeEntity;whiteSpace=wrap;html=1;align=center;fontSize=14;" vertex="1" parent="1">
          <mxGeometry x="550" y="410" width="140" height="60" as="geometry" />
        </mxCell>
        <mxCell id="9uWtrGqiBt9vVxMqKEjF-21" value="kd_transaksi" style="ellipse;whiteSpace=wrap;html=1;align=center;fontSize=14;" vertex="1" parent="1">
          <mxGeometry x="740" y="250" width="100" height="40" as="geometry" />
        </mxCell>
        <mxCell id="9uWtrGqiBt9vVxMqKEjF-22" value="kd_pelanggan" style="ellipse;whiteSpace=wrap;html=1;align=center;fontSize=14;" vertex="1" parent="1">
          <mxGeometry x="740" y="300" width="100" height="40" as="geometry" />
        </mxCell>
        <mxCell id="9uWtrGqiBt9vVxMqKEjF-23" value="kd_menu" style="ellipse;whiteSpace=wrap;html=1;align=center;fontSize=14;" vertex="1" parent="1">
          <mxGeometry x="740" y="350" width="100" height="40" as="geometry" />
        </mxCell>
        <mxCell id="9uWtrGqiBt9vVxMqKEjF-24" value="qty_pesanan" style="ellipse;whiteSpace=wrap;html=1;align=center;fontSize=14;" vertex="1" parent="1">
          <mxGeometry x="740" y="400" width="100" height="40" as="geometry" />
        </mxCell>
        <mxCell id="9uWtrGqiBt9vVxMqKEjF-25" value="tgl" style="ellipse;whiteSpace=wrap;html=1;align=center;fontSize=14;" vertex="1" parent="1">
          <mxGeometry x="740" y="450" width="100" height="40" as="geometry" />
        </mxCell>
        <mxCell id="9uWtrGqiBt9vVxMqKEjF-26" value="total_harga" style="ellipse;whiteSpace=wrap;html=1;align=center;fontSize=14;" vertex="1" parent="1">
          <mxGeometry x="740" y="500" width="100" height="40" as="geometry" />
        </mxCell>
        <mxCell id="9uWtrGqiBt9vVxMqKEjF-27" value="kd_pegawai" style="ellipse;whiteSpace=wrap;html=1;align=center;fontSize=14;" vertex="1" parent="1">
          <mxGeometry x="740" y="550" width="100" height="40" as="geometry" />
        </mxCell>
        <mxCell id="9uWtrGqiBt9vVxMqKEjF-28" value="" style="endArrow=none;html=1;rounded=0;fontSize=14;entryX=0;entryY=0.5;entryDx=0;entryDy=0;" edge="1" parent="1" target="9uWtrGqiBt9vVxMqKEjF-21">
          <mxGeometry relative="1" as="geometry">
            <mxPoint x="690" y="440" as="sourcePoint" />
            <mxPoint x="850" y="440" as="targetPoint" />
          </mxGeometry>
        </mxCell>
        <mxCell id="9uWtrGqiBt9vVxMqKEjF-29" value="" style="endArrow=none;html=1;rounded=0;fontSize=14;entryX=0;entryY=0.5;entryDx=0;entryDy=0;exitX=1;exitY=0.5;exitDx=0;exitDy=0;" edge="1" parent="1" source="9uWtrGqiBt9vVxMqKEjF-20" target="9uWtrGqiBt9vVxMqKEjF-22">
          <mxGeometry relative="1" as="geometry">
            <mxPoint x="700" y="450" as="sourcePoint" />
            <mxPoint x="750" y="280" as="targetPoint" />
          </mxGeometry>
        </mxCell>
        <mxCell id="9uWtrGqiBt9vVxMqKEjF-30" value="" style="endArrow=none;html=1;rounded=0;fontSize=14;entryX=0;entryY=0.5;entryDx=0;entryDy=0;exitX=1;exitY=0.5;exitDx=0;exitDy=0;" edge="1" parent="1" source="9uWtrGqiBt9vVxMqKEjF-20" target="9uWtrGqiBt9vVxMqKEjF-23">
          <mxGeometry relative="1" as="geometry">
            <mxPoint x="700" y="450" as="sourcePoint" />
            <mxPoint x="750" y="330" as="targetPoint" />
          </mxGeometry>
        </mxCell>
        <mxCell id="9uWtrGqiBt9vVxMqKEjF-31" value="" style="endArrow=none;html=1;rounded=0;fontSize=14;entryX=0;entryY=0.5;entryDx=0;entryDy=0;exitX=1;exitY=0.5;exitDx=0;exitDy=0;" edge="1" parent="1" source="9uWtrGqiBt9vVxMqKEjF-20" target="9uWtrGqiBt9vVxMqKEjF-24">
          <mxGeometry relative="1" as="geometry">
            <mxPoint x="710" y="460" as="sourcePoint" />
            <mxPoint x="760" y="340" as="targetPoint" />
          </mxGeometry>
        </mxCell>
        <mxCell id="9uWtrGqiBt9vVxMqKEjF-32" value="" style="endArrow=none;html=1;rounded=0;fontSize=14;entryX=0;entryY=0.5;entryDx=0;entryDy=0;exitX=1;exitY=0.5;exitDx=0;exitDy=0;" edge="1" parent="1" source="9uWtrGqiBt9vVxMqKEjF-20" target="9uWtrGqiBt9vVxMqKEjF-25">
          <mxGeometry relative="1" as="geometry">
            <mxPoint x="720" y="470" as="sourcePoint" />
            <mxPoint x="770" y="350" as="targetPoint" />
          </mxGeometry>
        </mxCell>
        <mxCell id="9uWtrGqiBt9vVxMqKEjF-33" value="" style="endArrow=none;html=1;rounded=0;fontSize=14;entryX=0;entryY=0.5;entryDx=0;entryDy=0;exitX=1;exitY=0.5;exitDx=0;exitDy=0;" edge="1" parent="1" source="9uWtrGqiBt9vVxMqKEjF-20" target="9uWtrGqiBt9vVxMqKEjF-26">
          <mxGeometry relative="1" as="geometry">
            <mxPoint x="730" y="480" as="sourcePoint" />
            <mxPoint x="780" y="360" as="targetPoint" />
          </mxGeometry>
        </mxCell>
        <mxCell id="9uWtrGqiBt9vVxMqKEjF-34" value="" style="endArrow=none;html=1;rounded=0;fontSize=14;entryX=0;entryY=0.5;entryDx=0;entryDy=0;exitX=1;exitY=0.5;exitDx=0;exitDy=0;" edge="1" parent="1" source="9uWtrGqiBt9vVxMqKEjF-20" target="9uWtrGqiBt9vVxMqKEjF-27">
          <mxGeometry relative="1" as="geometry">
            <mxPoint x="740" y="490" as="sourcePoint" />
            <mxPoint x="790" y="370" as="targetPoint" />
          </mxGeometry>
        </mxCell>
        <mxCell id="9uWtrGqiBt9vVxMqKEjF-35" value="&lt;b&gt;&lt;font style=&quot;font-size: 14px;&quot;&gt;Pegawai&lt;/font&gt;&lt;/b&gt;" style="whiteSpace=wrap;html=1;align=center;" vertex="1" parent="1">
          <mxGeometry x="560" y="211" width="100" height="40" as="geometry" />
        </mxCell>
        <mxCell id="9uWtrGqiBt9vVxMqKEjF-36" value="kd_pegawai" style="ellipse;whiteSpace=wrap;html=1;align=center;fontSize=14;" vertex="1" parent="1">
          <mxGeometry x="450" y="141" width="100" height="40" as="geometry" />
        </mxCell>
        <mxCell id="9uWtrGqiBt9vVxMqKEjF-37" value="kd_jabatan" style="ellipse;whiteSpace=wrap;html=1;align=center;fontSize=14;" vertex="1" parent="1">
          <mxGeometry x="559" y="140" width="100" height="40" as="geometry" />
        </mxCell>
        <mxCell id="9uWtrGqiBt9vVxMqKEjF-38" value="nama_pegawai" style="ellipse;whiteSpace=wrap;html=1;align=center;fontSize=14;" vertex="1" parent="1">
          <mxGeometry x="670" y="141" width="100" height="40" as="geometry" />
        </mxCell>
        <mxCell id="9uWtrGqiBt9vVxMqKEjF-39" value="" style="endArrow=none;html=1;rounded=0;fontSize=14;exitX=0.5;exitY=0;exitDx=0;exitDy=0;entryX=0.5;entryY=1;entryDx=0;entryDy=0;" edge="1" parent="1" source="9uWtrGqiBt9vVxMqKEjF-35" target="9uWtrGqiBt9vVxMqKEjF-36">
          <mxGeometry width="50" height="50" relative="1" as="geometry">
            <mxPoint x="960" y="161" as="sourcePoint" />
            <mxPoint x="1010" y="111" as="targetPoint" />
          </mxGeometry>
        </mxCell>
        <mxCell id="9uWtrGqiBt9vVxMqKEjF-40" value="" style="endArrow=none;html=1;rounded=0;fontSize=14;" edge="1" parent="1">
          <mxGeometry width="50" height="50" relative="1" as="geometry">
            <mxPoint x="610" y="211" as="sourcePoint" />
            <mxPoint x="610" y="181" as="targetPoint" />
          </mxGeometry>
        </mxCell>
        <mxCell id="9uWtrGqiBt9vVxMqKEjF-41" value="" style="endArrow=none;html=1;rounded=0;fontSize=14;entryX=0.5;entryY=1;entryDx=0;entryDy=0;" edge="1" parent="1" target="9uWtrGqiBt9vVxMqKEjF-38">
          <mxGeometry width="50" height="50" relative="1" as="geometry">
            <mxPoint x="610" y="211" as="sourcePoint" />
            <mxPoint x="620" y="191" as="targetPoint" />
          </mxGeometry>
        </mxCell>
        <mxCell id="9uWtrGqiBt9vVxMqKEjF-42" value="&lt;font style=&quot;font-size: 14px;&quot;&gt;&lt;b&gt;Jabatan&lt;/b&gt;&lt;/font&gt;" style="whiteSpace=wrap;html=1;align=center;" vertex="1" parent="1">
          <mxGeometry x="150" y="211" width="100" height="40" as="geometry" />
        </mxCell>
        <mxCell id="9uWtrGqiBt9vVxMqKEjF-44" value="kd_jabatan" style="ellipse;whiteSpace=wrap;html=1;align=center;fontSize=14;" vertex="1" parent="1">
          <mxGeometry x="100" y="140" width="100" height="40" as="geometry" />
        </mxCell>
        <mxCell id="9uWtrGqiBt9vVxMqKEjF-45" value="jabatan" style="ellipse;whiteSpace=wrap;html=1;align=center;fontSize=14;" vertex="1" parent="1">
          <mxGeometry x="220" y="141" width="100" height="40" as="geometry" />
        </mxCell>
        <mxCell id="9uWtrGqiBt9vVxMqKEjF-47" value="" style="endArrow=none;html=1;rounded=0;fontSize=14;exitX=0.5;exitY=0;exitDx=0;exitDy=0;entryX=0.5;entryY=1;entryDx=0;entryDy=0;" edge="1" parent="1" source="9uWtrGqiBt9vVxMqKEjF-42" target="9uWtrGqiBt9vVxMqKEjF-44">
          <mxGeometry width="50" height="50" relative="1" as="geometry">
            <mxPoint x="200" y="211" as="sourcePoint" />
            <mxPoint x="120" y="180" as="targetPoint" />
          </mxGeometry>
        </mxCell>
        <mxCell id="9uWtrGqiBt9vVxMqKEjF-48" value="" style="endArrow=none;html=1;rounded=0;fontSize=14;entryX=0.5;entryY=1;entryDx=0;entryDy=0;" edge="1" parent="1" target="9uWtrGqiBt9vVxMqKEjF-45">
          <mxGeometry width="50" height="50" relative="1" as="geometry">
            <mxPoint x="200" y="211" as="sourcePoint" />
            <mxPoint x="210" y="191" as="targetPoint" />
          </mxGeometry>
        </mxCell>
        <mxCell id="9uWtrGqiBt9vVxMqKEjF-51" value="Bertugas" style="shape=rhombus;perimeter=rhombusPerimeter;whiteSpace=wrap;html=1;align=center;fontSize=14;" vertex="1" parent="1">
          <mxGeometry x="340" y="200" width="120" height="60" as="geometry" />
        </mxCell>
        <mxCell id="9uWtrGqiBt9vVxMqKEjF-52" value="mencatat" style="shape=rhombus;perimeter=rhombusPerimeter;whiteSpace=wrap;html=1;align=center;fontSize=14;" vertex="1" parent="1">
          <mxGeometry x="550" y="280" width="120" height="60" as="geometry" />
        </mxCell>
        <mxCell id="9uWtrGqiBt9vVxMqKEjF-55" value="" style="endArrow=none;html=1;rounded=0;fontSize=14;exitX=1;exitY=0.5;exitDx=0;exitDy=0;entryX=0;entryY=0.5;entryDx=0;entryDy=0;" edge="1" parent="1" source="9uWtrGqiBt9vVxMqKEjF-1" target="9uWtrGqiBt9vVxMqKEjF-20">
          <mxGeometry width="50" height="50" relative="1" as="geometry">
            <mxPoint x="390" y="460" as="sourcePoint" />
            <mxPoint x="440" y="410" as="targetPoint" />
          </mxGeometry>
        </mxCell>
        <mxCell id="9uWtrGqiBt9vVxMqKEjF-56" value="" style="endArrow=none;html=1;rounded=0;fontSize=14;exitX=0.5;exitY=0;exitDx=0;exitDy=0;entryX=0.5;entryY=1;entryDx=0;entryDy=0;" edge="1" parent="1" source="9uWtrGqiBt9vVxMqKEjF-11" target="9uWtrGqiBt9vVxMqKEjF-20">
          <mxGeometry width="50" height="50" relative="1" as="geometry">
            <mxPoint x="350" y="451" as="sourcePoint" />
            <mxPoint x="560" y="450" as="targetPoint" />
          </mxGeometry>
        </mxCell>
        <mxCell id="9uWtrGqiBt9vVxMqKEjF-57" value="" style="endArrow=none;html=1;rounded=0;fontSize=14;exitX=0.5;exitY=1;exitDx=0;exitDy=0;entryX=0.5;entryY=0;entryDx=0;entryDy=0;" edge="1" parent="1" source="9uWtrGqiBt9vVxMqKEjF-52" target="9uWtrGqiBt9vVxMqKEjF-20">
          <mxGeometry width="50" height="50" relative="1" as="geometry">
            <mxPoint x="630" y="610" as="sourcePoint" />
            <mxPoint x="630" y="480" as="targetPoint" />
          </mxGeometry>
        </mxCell>
        <mxCell id="9uWtrGqiBt9vVxMqKEjF-58" value="" style="endArrow=none;html=1;rounded=0;fontSize=14;exitX=0.5;exitY=0;exitDx=0;exitDy=0;entryX=0.5;entryY=1;entryDx=0;entryDy=0;" edge="1" parent="1" source="9uWtrGqiBt9vVxMqKEjF-52" target="9uWtrGqiBt9vVxMqKEjF-35">
          <mxGeometry width="50" height="50" relative="1" as="geometry">
            <mxPoint x="620" y="350" as="sourcePoint" />
            <mxPoint x="630" y="420" as="targetPoint" />
          </mxGeometry>
        </mxCell>
        <mxCell id="9uWtrGqiBt9vVxMqKEjF-59" value="" style="endArrow=none;html=1;rounded=0;fontSize=14;exitX=1;exitY=0.5;exitDx=0;exitDy=0;entryX=0;entryY=0.5;entryDx=0;entryDy=0;" edge="1" parent="1" source="9uWtrGqiBt9vVxMqKEjF-51" target="9uWtrGqiBt9vVxMqKEjF-35">
          <mxGeometry width="50" height="50" relative="1" as="geometry">
            <mxPoint x="620" y="290" as="sourcePoint" />
            <mxPoint x="620" y="261" as="targetPoint" />
          </mxGeometry>
        </mxCell>
        <mxCell id="9uWtrGqiBt9vVxMqKEjF-60" value="" style="endArrow=none;html=1;rounded=0;fontSize=14;exitX=0;exitY=0.5;exitDx=0;exitDy=0;entryX=1;entryY=0.5;entryDx=0;entryDy=0;" edge="1" parent="1" source="9uWtrGqiBt9vVxMqKEjF-51" target="9uWtrGqiBt9vVxMqKEjF-42">
          <mxGeometry width="50" height="50" relative="1" as="geometry">
            <mxPoint x="470" y="240" as="sourcePoint" />
            <mxPoint x="570" y="241" as="targetPoint" />
          </mxGeometry>
        </mxCell>
        <mxCell id="9uWtrGqiBt9vVxMqKEjF-61" value="M" style="text;html=1;resizable=0;autosize=1;align=center;verticalAlign=middle;points=[];fillColor=none;strokeColor=none;rounded=0;fontSize=14;" vertex="1" parent="1">
          <mxGeometry x="360" y="417" width="40" height="30" as="geometry" />
        </mxCell>
        <mxCell id="9uWtrGqiBt9vVxMqKEjF-62" value="N" style="text;html=1;resizable=0;autosize=1;align=center;verticalAlign=middle;points=[];fillColor=none;strokeColor=none;rounded=0;fontSize=14;" vertex="1" parent="1">
          <mxGeometry x="625" y="570" width="30" height="30" as="geometry" />
        </mxCell>
        <mxCell id="9uWtrGqiBt9vVxMqKEjF-63" value="M" style="text;html=1;resizable=0;autosize=1;align=center;verticalAlign=middle;points=[];fillColor=none;strokeColor=none;rounded=0;fontSize=14;" vertex="1" parent="1">
          <mxGeometry x="615" y="370" width="40" height="30" as="geometry" />
        </mxCell>
        <mxCell id="9uWtrGqiBt9vVxMqKEjF-64" value="1" style="text;html=1;resizable=0;autosize=1;align=center;verticalAlign=middle;points=[];fillColor=none;strokeColor=none;rounded=0;fontSize=14;" vertex="1" parent="1">
          <mxGeometry x="609" y="252" width="30" height="30" as="geometry" />
        </mxCell>
        <mxCell id="9uWtrGqiBt9vVxMqKEjF-65" value="M" style="text;html=1;resizable=0;autosize=1;align=center;verticalAlign=middle;points=[];fillColor=none;strokeColor=none;rounded=0;fontSize=14;" vertex="1" parent="1">
          <mxGeometry x="495" y="200" width="40" height="30" as="geometry" />
        </mxCell>
        <mxCell id="9uWtrGqiBt9vVxMqKEjF-66" value="1" style="text;html=1;resizable=0;autosize=1;align=center;verticalAlign=middle;points=[];fillColor=none;strokeColor=none;rounded=0;fontSize=14;" vertex="1" parent="1">
          <mxGeometry x="265" y="200" width="30" height="30" as="geometry" />
        </mxCell>
      </root>
    </mxGraphModel>
  </diagram>
</mxfile>
